<svg width="500" height="501" viewBox="0 0 500 501" fill="none" xmlns="http://www.w3.org/2000/svg">
<path d="M466.506 375.75C439.343 422.797 397.595 459.717 347.578 480.921C297.561 502.125 241.999 506.459 189.299 493.269C136.599 480.078 89.6295 450.08 55.4989 407.815C21.3683 365.549 1.93391 313.316 0.136822 259.02C-1.66027 204.724 14.2777 151.32 45.5389 106.89C76.8 62.4602 121.683 29.4222 173.395 12.7758C225.108 -3.87063 280.835 -3.21941 332.145 14.6309C383.454 32.4812 427.553 66.559 457.767 111.707L416.214 139.516C392.042 103.397 356.763 76.1349 315.716 61.8547C274.668 47.5745 230.086 47.0535 188.716 60.3706C147.346 73.6877 111.44 100.118 86.4311 135.662C61.4222 171.206 48.6718 213.929 50.1095 257.366C51.5471 300.803 67.0946 342.589 94.3991 376.402C121.704 410.214 159.279 434.213 201.439 444.765C243.599 455.317 288.049 451.85 328.062 434.887C368.076 417.923 401.475 388.388 423.205 350.75L466.506 375.75Z" fill="#FF8E72"/>
<path d="M378.3 324.824C362.203 352.704 337.463 374.582 307.824 387.147C278.184 399.713 245.258 402.282 214.029 394.465C182.799 386.648 154.965 368.872 134.74 343.825C114.514 318.779 102.998 287.826 101.933 255.651C100.868 223.475 110.312 191.829 128.838 165.5C147.363 139.171 173.96 119.593 204.604 109.728C235.249 99.8638 268.273 100.25 298.678 110.828C329.084 121.406 355.216 141.6 373.121 168.354L336.185 193.073C323.651 174.345 305.358 160.209 284.075 152.804C262.791 145.4 239.674 145.13 218.223 152.035C196.772 158.94 178.154 172.645 165.186 191.075C152.219 209.505 145.607 231.658 146.353 254.181C147.098 276.703 155.16 298.37 169.318 315.903C183.476 333.435 202.959 345.879 224.82 351.35C246.681 356.822 269.729 355.024 290.477 346.228C311.224 337.433 328.542 322.118 339.81 302.602L378.3 324.824Z" fill="#FF8E72"/>
</svg>
